<svg xmlns="http://www.w3.org/2000/svg" height="24" viewBox="0 96 960 960" width="24"><path d="M200 976q-33 0-56.5-23.5T120 896V336q0-33 23.5-56.5T200 256h40v-80h80v80h320v-80h80v80h40q33 0 56.5 23.5T840 336v560q0 33-23.5 56.5T760 976H200Zm0-80h560V496H200v400Zm0-480h560v-80H200v80Zm0 0v-80 80Zm280 240q-17 0-28.5-11.5T440 616q0-17 11.5-28.5T480 576q17 0 28.5 11.5T520 616q0 17-11.5 28.5T480 656Zm-160 0q-17 0-28.5-11.5T280 616q0-17 11.5-28.5T320 576q17 0 28.5 11.5T360 616q0 17-11.5 28.5T320 656Zm320 0q-17 0-28.5-11.5T600 616q0-17 11.5-28.5T640 576q17 0 28.5 11.5T680 616q0 17-11.5 28.5T640 656ZM480 816q-17 0-28.5-11.5T440 776q0-17 11.5-28.5T480 736q17 0 28.5 11.5T520 776q0 17-11.5 28.5T480 816Zm-160 0q-17 0-28.5-11.5T280 776q0-17 11.5-28.5T320 736q17 0 28.5 11.5T360 776q0 17-11.5 28.5T320 816Zm320 0q-17 0-28.5-11.5T600 776q0-17 11.5-28.5T640 736q17 0 28.5 11.5T680 776q0 17-11.5 28.5T640 816Z"/></svg>